# AST/ASF file generated using VICON BodyLanguage
# -----------------------------------------------
:version 1.10
:name VICON
:units
  mass 1.0
  length 0.45
  angle deg
:documentation
   .ast/.asf automatically generated from VICON data using
   VICON BodyBuilder and BodyLanguage model FoxedUp or BRILLIANT.MOD
:root
   order TX TY TZ RX RY RZ
   axis XYZ
   position 0 0 0  
   orientation 0 0 0 
:bonedata
  begin
     id 1 
     name lhipjoint
     direction 0.567725 -0.736092 0.368589 
     length 2.42353 
     axis 0 0 0  XYZ
  end
  begin
     id 2 
     name lfemur
     direction 0.34202 -0.939693 0  
     length 7.24894  
     axis 0 0 20  XYZ
    dof rx ry rz
    limits (-160.0 20.0)
           (-70.0 70.0)
           (-60.0 70.0)
  end
  begin
     id 3 
     name ltibia
     direction 0.34202 -0.939693 0   
     length 7.6997   
     axis 0 0 20   XYZ
    dof rx
    limits (-10.0 170.0)
  end
  begin
     id 4 
     name lfoot
     direction 0.100767 -0.276854 0.955614   
     length 2.37556   
     axis -90 7.62852e-016 20   XYZ
    dof rx rz
    limits (-45.0 90.0)
           (-70.0 20.0)
  end
  begin
     id 5 
     name ltoes
     direction 1.53592e-011 -4.21894e-011 1   
     length 1.18363   
     axis -90 7.62852e-016 20   XYZ
    dof rx
    limits (-90.0 20.0)
  end
  begin
     id 6 
     name rhipjoint
     direction -0.556459 -0.742938 0.372017   
     length 2.4012  
     axis 0 0 0  XYZ 
  end
  begin
     id 7 
     name rfemur
     direction -0.34202 -0.939693 0   
     length 7.5119   
     axis 0 0 -20   XYZ
    dof rx ry rz
    limits (-160.0 20.0)
           (-70.0 70.0)
           (-70.0 60.0)
  end
  begin
     id 8 
     name rtibia
     direction -0.34202 -0.939693 0   
     length 7.50155   
     axis 0 0 -20   XYZ
    dof rx
    limits (-10.0 170.0)
 end
 begin
     id 9 
     name rfoot
     direction -0.118427 -0.325376 0.938139   
     length 2.32487  
     axis -90 -7.62852e-016 -20   XYZ
    dof rx rz
    limits (-45.0 90.0)
           (-20.0 70.0)
  end
  begin
     id 10 
     name rtoes
     direction -1.53525e-011 -4.21868e-011 1   
     length 1.15233   
     axis -90 -7.62852e-016 -20   XYZ
    dof rx
    limits (-90.0 20.0)
  end
  begin
     id 11 
     name lowerback
     direction 0.0287568 0.999577 -0.00434502   
     length 2.15243   
     axis 0 0 0   XYZ
    dof rx ry rz
    limits (-20.0 45.0)
           (-30.0 30.0)
           (-30.0 30.0)
  end
  begin
     id 12 
     name upperback
     direction 0.0294009 0.99956 0.00404628   
     length 2.15427   
     axis 0 0 0   XYZ
    dof rx ry rz
    limits (-20.0 45.0)
           (-30.0 30.0)
           (-30.0 30.0)
  end
  begin
     id 13 
     name thorax
     direction 0.0151014 0.999868 0.0059419   
     length 2.14898   
     axis 0 0 0   XYZ
    dof rx ry rz
    limits (-20.0 45.0)
           (-30.0 30.0)
           (-30.0 30.0)
  end
  begin
     id 14 
     name lowerneck
     direction -0.0249197 0.989906 0.139515   
     length 1.6861   
     axis 0 0 0   XYZ
    dof rx ry rz
    limits (-20.0 45.0)
           (-30.0 30.0)
           (-30.0 30.0)
  end
  begin
     id 15 
     name upperneck
     direction 0.0438463 0.988795 -0.142693   
     length 1.71276   
     axis 0 0 0   XYZ
    dof rx ry rz
    limits (-20.0 45.0)
           (-30.0 30.0)
           (-30.0 30.0)
  end
  begin
     id 16
     name head
     direction 0.0148499 0.997845 -0.0639186  
     length 1.7209  
     axis 0 0 0   XYZ
    dof rx ry rz
    limits (-20.0 45.0)
           (-30.0 30.0)
           (-30.0 30.0)
  end
  begin
     id 17 
     name lclavicle
     direction 0.940298 0.323464 -0.105876  
     length 3.9048  
     axis 0 0 0   XYZ
    dof ry rz
    limits (-20.0 10.0)
           (0.0 20.0)
  end
  begin
     id 18 
     name lhumerus
     direction 1 -4.48954e-011 -4.9675e-028   
     length 4.6851   
     axis 180 -30 -90   XYZ
    dof rx ry rz
    limits (-60.0 90.0)
           (-90.0 90.0)
           (-90.0 90.0)
  end
  begin
     id 19
     name lradius
     direction 1 -4.48992e-011 -1.03359e-026   
     length 3.39626   
     axis 180 -30 -90   XYZ
    dof rx
    limits (-10.0 170.0)
  end
  begin
     id 20
     name lwrist
     direction 1 -4.48906e-011 -1.67336e-026   
     length 1.69813   
     axis 9.90442e-015 90 90   XYZ
    dof ry
    limits (-180.0 0.0)
 end
  begin
     id 21 
     name lhand
     direction 1 -4.49006e-011 -3.34673e-026   
     length 0.486078   
     axis 2.1355e-014 90 90   XYZ
    dof rx rz
    limits (-90.0 90.0)
           (-45.0 45.0)
  end
  begin
     id 22 
     name lfingers
     direction 1 -4.48992e-011 -6.69345e-026   
     length 0.391889   
     axis 4.27099e-014 90 90   XYZ
    dof rx
    limits (0.0 90.0)
  end
  begin
     id 23
     name lthumb
     direction 0.707107 -6.34926e-011 0.707107   
     length 0.562676   
     axis -90 45 2.85299e-015   XYZ
    dof rx rz
    limits (-45.0 45.0)
           (-45.0 45.0)
  end
  begin
     id 24 
     name rclavicle
     direction -0.882459 0.414895 -0.221648   
     length 3.44646  
     axis 0 0 0   XYZ 
    dof ry rz
    limits (-10.0 20.0)
           (-20.0 0.0)
  end
  begin
     id 25 
     name rhumerus
     direction -1 -4.48962e-011 -2.37984e-027  
     length 5.55576   
     axis 180 30 90   XYZ
    dof rx ry rz
    limits (-90.0 60.0)
           (-90.0 90.0)
           (-90.0 90.0)
  end
  begin
     id 26 
     name rradius
     direction -1 -4.48982e-011 -6.86791e-027   
     length 3.32774   
     axis 180 30 90   XYZ
    dof rx
    limits (-10.0 170.0)
  end
  begin
     id 27 
     name rwrist
     direction -1 -4.48961e-011 -1.67336e-026   
     length 1.66387   
     axis 9.90442e-015 -90 -90   XYZ
    dof ry
    limits (-180.0 0.0)
  end
  begin
     id 28
     name rhand
     direction -1 -4.4897e-011 -3.34673e-026   
     length 0.507628   
     axis 2.1355e-014 -90 -90   XYZ
    dof rx rz
    limits (-90.0 90.0)
           (-45.0 45.0)
  end
  begin
     id 29
     name rfingers
     direction -1 -4.48854e-011 -6.69345e-026   
     length 0.409263   
     axis 4.27099e-014 -90 -90   XYZ
    dof rx
    limits (0.0 90.0)
  end
  begin
     id 30
     name rthumb
     direction -0.707107 -6.34913e-011 0.707107   
     length 0.587622   
     axis -90 -45 -2.85299e-015   XYZ
    dof rx rz
    limits (-45.0 45.0)
           (-45.0 45.0)
  end
:hierarchy
  begin
    root lhipjoint rhipjoint lowerback
    lhipjoint lfemur
    lfemur ltibia
    ltibia lfoot
    lfoot ltoes
    rhipjoint rfemur
    rfemur rtibia
    rtibia rfoot
    rfoot rtoes
    lowerback upperback
    upperback thorax
    thorax lowerneck lclavicle rclavicle
    lowerneck upperneck
    upperneck head
    lclavicle lhumerus
    lhumerus lradius
    lradius lwrist
    lwrist lhand lthumb
    lhand lfingers
    rclavicle rhumerus
    rhumerus rradius
    rradius rwrist
    rwrist rhand rthumb
    rhand rfingers
  end

#!OML:ASF E:\motion texture\Top Level 1\Subject 1\Session 1\male.ASF
:FULLY-SPECIFIED
:DEGREES
1
root 29.1475 17.8224 5.58594 33.2368 -75.2255 -29.2239
lowerback 0.125343 1.41136 7.13267
upperback -2.62866 1.98564 1.24003
thorax -2.59335 0.826815 -2.75389
lowerneck -11.4422 -7.74725 -10.5761
upperneck 10.2217 -9.07139 3.04483
head 5.57794 -4.64319 1.85821
rclavicle 4.25679e-014 2.82274e-014
rhumerus 25.5536 7.0584 -62.0191
rradius 86.5071
rwrist 11.915
rhand -35.484 -23.9923
rfingers 7.12502
rthumb -8.61186 -53.7966
lclavicle 4.25679e-014 2.82274e-014
lhumerus -36.977 25.8072 66.652
lradius 18.245
lwrist -40.0315
lhand -7.5997 20.577
lfingers 7.12502
lthumb 18.294 49.7367
rfemur -16.144 -2.77016 29.1424
rtibia 18.0036
rfoot -5.10614 -13.6021
rtoes 21.0994
lfemur -13.8908 -6.13756 -4.84662
ltibia 57.7001
lfoot 11.6616 -4.08019
ltoes -9.11391
2
root 29.0298 17.8369 5.56659 33.8713 -75.4218 -29.8729
lowerback 0.0235344 1.67962 6.71574
upperback -2.63343 2.33058 1.53828
thorax -2.53217 1.01187 -2.2165
lowerneck -11.1172 -7.89947 -10.883
upperneck 10.2385 -9.25409 2.94072
head 5.55215 -4.7557 1.86449
rclavicle 1.06226e-014 4.28381e-014
rhumerus 26.9756 6.55956 -61.5174
rradius 82.7973
rwrist 10.3158
rhand -33.2524 -23.7747
rfingers 7.12502
rthumb -6.4579 -53.6563
lclavicle 1.06226e-014 4.28381e-014
lhumerus -37.5209 26.4255 66.6057
lradius 18.1618
lwrist -40.2346
lhand -7.64131 20.3
lfingers 7.12502
lthumb 18.2539 49.4635
rfemur -15.4957 -2.49621 29.378
rtibia 17.5996
rfoot -5.34828 -13.5529
rtoes 21.2134
lfemur -14.905 -5.63422 -4.84857
ltibia 58.5969
lfoot 10.436 -3.72049
ltoes -9.51643
3
root 28.892 17.8535 5.56063 35.4207 -75.9298 -31.682
lowerback -0.115925 2.05987 6.4659
upperback -2.49977 2.81751 1.85079
thorax -2.29843 1.2717 -1.75435
lowerneck -10.8383 -8.01372 -11.1683
upperneck 10.223 -9.37955 2.79185
head 5.51703 -4.84129 1.85837
rclavicle -3.46145e-014 6.95746e-015
rhumerus 28.4398 6.27075 -60.9273
rradius 78.232
rwrist 11.138
rhand -34.9754 -23.8106
rfingers 7.12502
rthumb -8.12098 -53.6346
lclavicle -3.46145e-014 6.95746e-015
lhumerus -38.0995 26.8905 66.6316
lradius 18.195
lwrist -40.283
lhand -7.64687 19.9784
lfingers 7.12502
lthumb 18.2486 49.1424
rfemur -14.4566 -2.21047 29.7034
rtibia 17.1067
rfoot -5.53431 -13.0972
rtoes 21.0662
lfemur -15.2624 -4.88283 -4.85887
ltibia 59.0446
lfoot 9.26194 -3.26324
ltoes -8.95797
4
root 28.7836 17.8649 5.54302 35.5436 -75.9444 -31.7633
lowerback -0.164953 2.19127 6.13581
upperback -2.5212 2.98689 2.09358
thorax -2.30782 1.36353 -1.32222
lowerneck -10.623 -8.12174 -11.4619
upperneck 10.2306 -9.50175 2.74282
head 5.50489 -4.9184 1.88224
rclavicle 3.37267e-014 2.66993e-014
rhumerus 29.9418 5.90488 -60.5698
rradius 73.9107
rwrist 10.4963
rhand -33.1433 -24.0724
rfingers 7.12502
rthumb -6.35254 -53.9572
lclavicle 3.37267e-014 2.66993e-014
lhumerus -38.5948 26.9649 66.8645
lradius 18.4145
lwrist -39.7129
lhand -7.70243 19.8357
lfingers 7.12502
lthumb 18.1951 49.0047
rfemur -13.8899 -2.16483 29.853
rtibia 16.7178
rfoot -5.76783 -13.0139
rtoes 21.1811
lfemur -16.3663 -4.63429 -4.91187
ltibia 59.477
lfoot 8.20639 -3.16708
ltoes -8.67192
5
root 28.6651 17.8772 5.52948 36.2831 -76.1148 -32.5628
lowerback -0.251587 2.39928 6.01888
upperback -2.47952 3.25384 2.24389
thorax -2.21265 1.50296 -1.10074
lowerneck -10.4458 -8.22065 -11.6679
upperneck 10.2579 -9.62859 2.75059
head 5.50414 -4.99044 1.9086
rclavicle 4.73981e-014 9.39258e-015
rhumerus 31.4059 5.47456 -60.4013
rradius 69.6175
rwrist 10.094
rhand -32.0723 -24.0483
rfingers 7.12502
rthumb -5.31852 -53.9616
lclavicle 4.73981e-014 9.39258e-015
lhumerus -39.0333 27.0286 66.9179
lradius 18.5759
lwrist -39.2458
lhand -7.73818 19.6896
lfingers 7.12502
lthumb 18.1607 48.8618
rfemur -13.1723 -2.01718 30.0855
rtibia 16.3156
rfoot -6.01052 -12.8138
rtoes 21.2937
lfemur -17.2132 -4.22417 -4.9288
ltibia 59.8687
lfoot 7.01146 -2.96467
ltoes -8.61811
6
root 28.5477 17.8883 5.51662 37.0296 -76.2545 -33.3622
lowerback -0.322319 2.59028 6.03706
upperback -2.45331 3.50087 2.30637
thorax -2.13334 1.62836 -1.0442
lowerneck -10.267 -8.30537 -11.8055
upperneck 10.2913 -9.75482 2.81636
head 5.50455 -5.05583 1.94302
rclavicle 5.11276e-014 3.4191e-014
rhumerus 32.8219 4.98603 -60.445
rradius 65.295
rwrist 9.6768
rhand -30.8161 -23.9915
rfingers 7.12502
rthumb -4.10551 -53.9317
lclavicle 5.11276e-014 3.4191e-014
lhumerus -39.4275 26.8881 66.9475
lradius 18.7887
lwrist -38.5958
lhand -7.7839 19.6037
lfingers 7.12502
lthumb 18.1168 48.78
rfemur -12.4725 -1.88922 30.3207
rtibia 15.9332
rfoot -6.30842 -12.619
rtoes 21.6034
lfemur -18.0608 -3.86621 -4.94139
ltibia 60.1318
lfoot 5.76187 -2.82517
ltoes -8.78471
7
root 28.4319 17.898 5.50409 37.7627 -76.3542 -34.1333
lowerback -0.367115 2.75685 6.16762
upperback -2.43684 3.71846 2.30053
thorax -2.06984 1.73591 -1.12032
lowerneck -10.1542 -8.38363 -11.8944
upperneck 10.3561 -9.87726 2.92822
head 5.52547 -5.11427 1.98185
rclavicle 3.61571e-014 2.67862e-014
rhumerus 34.2232 4.43648 -60.6827
rradius 60.9839
rwrist 9.1161
rhand -29.2501 -23.864
rfingers 7.12502
rthumb -2.59324 -53.828
lclavicle 3.61571e-014 2.67862e-014
lhumerus -39.7682 26.6187 66.9573
lradius 19.0385
lwrist -37.8137
lhand -7.84234 19.5579
lfingers 7.12502
lthumb 18.0605 48.7394
rfemur -11.8069 -1.77915 30.5618
rtibia 15.5747
rfoot -6.60469 -12.4361
rtoes 21.8933
lfemur -18.9274 -3.56728 -4.94682
ltibia 60.2782
lfoot 4.45756 -2.75477
ltoes -9.22608
8
root 28.316 17.9065 5.49267 38.541 -76.4384 -34.9493
lowerback -0.383615 2.91704 6.38583
upperback -2.43965 3.9312 2.24342
thorax -2.03258 1.83802 -1.29862
lowerneck -10.0541 -8.45827 -11.9297
upperneck 10.443 -10.0034 3.05257
head 5.55374 -5.17196 2.01539
rclavicle -2.3171e-014 -7.87684e-015
rhumerus 35.5755 3.82162 -61.1002
rradius 56.6686
rwrist 8.53748
rhand -27.6234 -23.7017
rfingers 7.12502
rthumb -1.02221 -53.679
lclavicle -2.3171e-014 -7.87684e-015
lhumerus -40.0911 26.2249 66.9485
lradius 19.3168
lwrist -36.9449
lhand -7.90663 19.5233
lfingers 7.12502
lthumb 17.9987 48.7105
rfemur -11.1539 -1.68241 30.8126
rtibia 15.2314
rfoot -6.89118 -12.2492
rtoes 22.1216
lfemur -19.7672 -3.30526 -4.94638
ltibia 60.2868
lfoot 3.13316 -2.74211
ltoes -9.77195
9
root 28.201 17.914 5.48204 39.3254 -76.4973 -35.7631
lowerback -0.376948 3.07087 6.60778
upperback -2.46091 4.13836 2.19436
thorax -2.02631 1.93603 -1.47209
lowerneck -9.95014 -8.53289 -11.9686
upperneck 10.5316 -10.1295 3.1726
head 5.58207 -5.23012 2.04823
rclavicle 1.87978e-014 6.11884e-015
rhumerus 36.8881 3.16243 -61.5976
rradius 52.3775
rwrist 7.9636
rhand -25.9078 -23.5684
rfingers 7.12502
rthumb 0.634771 -53.5472
lclavicle 1.87978e-014 6.11884e-015
lhumerus -40.4212 25.8242 66.9542
lradius 19.6048
lwrist -36.09
lhand -7.98657 19.5022
lfingers 7.12502
lthumb 17.9218 48.6964
rfemur -10.5303 -1.60593 31.071
rtibia 14.9083
rfoot -7.1481 -12.0703
rtoes 22.1956
lfemur -20.5981 -3.08479 -4.94044
ltibia 60.1674
lfoot 1.83182 -2.78504
ltoes -10.3943
